<svg xmlns="http://www.w3.org/2000/svg" viewBox="0 0 338.82 298.1"><defs><style>.cls-1{fill:#fff;}</style></defs><g id="Layer_2" data-name="Layer 2"><g id="COMMENT-DOTS"><path class="cls-1" d="M338.82,139.32c0,75.68-75.5,137.53-169.4,137.53a204.64,204.64,0,0,1-61.69-9.47C87.81,281,56.19,298.1,15.36,298.1A14.41,14.41,0,0,1,1.29,287.9a16,16,0,0,1,3.07-17.26c.33-.25,20.92-22.41,30.79-48.64C13.24,198.72,0,169.75,0,138.12,0,61.84,75.52,0,169.42,0S338.82,63.64,338.82,139.32Zm-21.81-.6c0-64.41-66.14-116.87-148.15-116.87-81.41,0-148.15,52.46-148.15,116.87,0,25,10.26,48.55,29.46,69.37,5.46,6.45,7.12,14.31,4.27,21.79l-.08.23c-7.3,19.34-19.68,36.2-27.06,46.24,29.33-2.9,53.53-15.55,68.2-26.34a21,21,0,0,1,18.64-2.88,183.64,183.64,0,0,0,55.28,8.47C251.43,255.6,317,203.14,317,138.72Zm-216.65,0a15.94,15.94,0,1,1-15.94-15.93A15.93,15.93,0,0,1,100.36,138.72Zm85,0a15.94,15.94,0,1,1-15.94-15.93A15.94,15.94,0,0,1,185.36,138.72Zm85,0a15.94,15.94,0,1,1-15.94-15.93A15.94,15.94,0,0,1,270.36,138.72Z"/></g></g></svg>