<svg xmlns="http://www.w3.org/2000/svg" viewBox="0 0 337.39 337.42"><defs><style>.cls-1{fill:#fff;}</style></defs><g id="Layer_2" data-name="Layer 2"><g id="EDIT"><path class="cls-1" d="M132.81,39.92a15.94,15.94,0,0,1,0,31.88H58.44A26.55,26.55,0,0,0,31.88,98.36V279a26.56,26.56,0,0,0,26.56,26.57H239.06A26.55,26.55,0,0,0,265.62,279V204.61a15.94,15.94,0,1,1,31.88,0V279a58.43,58.43,0,0,1-58.44,58.44H58.44A58.43,58.43,0,0,1,0,279V98.36A58.44,58.44,0,0,1,58.44,39.92ZM247.76,14a47.8,47.8,0,0,1,67.6,0l8,8.05a47.83,47.83,0,0,1,0,67.61l-130.95,131a48.67,48.67,0,0,1-20.72,12.15l-66.41,19a15.11,15.11,0,0,1-15.67-4.64A14.68,14.68,0,0,1,85.6,232.1l19-66.4A48.56,48.56,0,0,1,116.74,145ZM135.27,174.46l-11.16,38.85L163,202.15a15.49,15.49,0,0,0,6.91-4.05L259.05,109,228.44,78.37l-89.12,89.18A15.49,15.49,0,0,0,135.27,174.46Zm157-137.92c-5.64-6.22-15.73-6.22-22,0L251,55.86l30.61,30.61,19.33-19.92c6.24-5.64,6.24-15.74,0-22Z"/></g></g></svg>