<svg xmlns="http://www.w3.org/2000/svg" viewBox="0 0 339.4 297.5"><defs><style>.cls-1{fill:#fff;}</style></defs><g id="Layer_2" data-name="Layer 2"><g id="IMAGE"><path class="cls-1" d="M339.4,42.5V255a42.5,42.5,0,0,1-42.5,42.5H41.9C19,297.5,0,278.47,0,255V42.5C0,19,19,0,41.91,0h255A42.13,42.13,0,0,1,339.4,42.5ZM308.12,250.55V42.5A10.63,10.63,0,0,0,297.5,31.88H42.5A10.64,10.64,0,0,0,31.87,42.5l0,212h0l50.15-62.29a12.89,12.89,0,0,1,19.62,0l24.63,30.61,70.79-95.69a12.52,12.52,0,0,1,10.1-4.9c4.05,0,7.84,1.86,9.5,4.91l90.84,123.45ZM132.82,90.31a31.88,31.88,0,1,1-31.88-31.87A31.88,31.88,0,0,1,132.82,90.31Z"/></g></g></svg>