<svg xmlns="http://www.w3.org/2000/svg" viewBox="0 0 340 340"><defs><style>.cls-1{fill:#fff;}</style></defs><g id="Layer_2" data-name="Layer 2"><g id="PHONE"><path class="cls-1" d="M339.25,253.94l-14.48,62.73A30,30,0,0,1,295.44,340C132.55,340,0,207.45,0,44.57A29.88,29.88,0,0,1,23.35,15.31L86.06.77a30.18,30.18,0,0,1,34.4,17.41l28.93,67.6a29.92,29.92,0,0,1-8.53,35.09l-26.91,22a209,209,0,0,0,83.22,83.2l22-26.88a30.34,30.34,0,0,1,35-8.68l67.6,29A30.21,30.21,0,0,1,339.25,253.94Zm-20.73-4.77a8.88,8.88,0,0,0-5.13-10.11l-67.47-28.93a9,9,0,0,0-10.29,2.56l-27.49,33.53a10.6,10.6,0,0,1-12.91,2.8A230.06,230.06,0,0,1,91,144.83,10.61,10.61,0,0,1,93.83,132l33.54-27.49a8.9,8.9,0,0,0,2.51-10.36L100.94,26.57a8.88,8.88,0,0,0-8.13-5.34,9.07,9.07,0,0,0-2,.23L28.13,36a8.75,8.75,0,0,0-6.87,8.56c0,151.2,123,274.19,274.2,274.19a8.91,8.91,0,0,0,8.61-6.85Z"/></g></g></svg>