<svg xmlns="http://www.w3.org/2000/svg" viewBox="0 0 297.52 339.98"><defs><style>.cls-1{fill:#fff;}</style></defs><g id="Layer_2" data-name="Layer 2"><g id="RIBBON"><path class="cls-1" d="M135.09,268.73a10.66,10.66,0,0,1-.06,15L86.4,332a25.38,25.38,0,0,1-31.77,4.22l-41.5-17a10,10,0,0,1-2-1.08A25.53,25.53,0,0,1,.24,300.26C-.68,293,1,285.67,6.4,280.15l60.24-64.33a10.63,10.63,0,1,1,15.52,14.53l-60,64.08a4.39,4.39,0,0,0,.4,5.71l41,16.78a11.88,11.88,0,0,1,2,1.11A4.24,4.24,0,0,0,71,317.3l49-48.64A10.71,10.71,0,0,1,135.09,268.73ZM291,280.08C231.14,212.94,145.18,116.26,118.22,85.64c9-3,18.66-4.54,30.46-4.54,16.58,0,30.92,3.32,42.61,9.85A10.63,10.63,0,1,0,201.66,72.4c-14.84-8.28-32.7-12.52-53-12.52s-38,4.24-53,12.56A10.55,10.55,0,0,0,90.64,79a10.91,10.91,0,0,0,1.22,8.22c.64,1.06,2.59,4.23,182.68,207a4.36,4.36,0,0,1,1.1,3.44,4.31,4.31,0,0,1-1.14,2.39l-41.13,16.81c-.71.29-1.37.64-1.4,1.07a4,4,0,0,1-5.33-.66l-153-171.34C49,118.32,67,87.57,67.75,86.17L94.67,40.54a24,24,0,0,1,7.16-7.78c22.37-15.32,71.52-15.26,93.7-.06a23.8,23.8,0,0,1,7.24,7.88l27,45.76a50.47,50.47,0,0,1-5.85,59.42,10.62,10.62,0,1,0,15.85,14.15A71.61,71.61,0,0,0,248,75.57L221.11,29.9A45,45,0,0,0,207.6,15.25c-29.67-20.34-88-20.34-117.87,0A54.5,54.5,0,0,0,75.79,29.8L49.5,75.35c-10.06,16.77-19.65,53.52,8.28,84.74l153,171.32a25.42,25.42,0,0,0,32.15,4.74l41.56-17a11.52,11.52,0,0,0,1.95-1.06,25.23,25.23,0,0,0,10.87-17.82A25.51,25.51,0,0,0,291,280.08Z"/></g></g></svg>