<svg xmlns="http://www.w3.org/2000/svg" viewBox="0 0 297.5 340"><defs><style>.cls-1{fill:#fff;}</style></defs><g id="Layer_2" data-name="Layer 2"><g id="TRASH"><path class="cls-1" d="M89.78,11.75A21.24,21.24,0,0,1,108.77,0h80a21.24,21.24,0,0,1,19,11.75l4.78,9.5h63.75a21.25,21.25,0,0,1,0,42.5h-255a21.25,21.25,0,0,1,0-42.5H85ZM20.65,85h255.6V297.5a42.54,42.54,0,0,1-42.5,42.5H63.15c-22.87,0-42.5-19.06-42.5-42.5Zm53.13,53.12V286.88c0,5.84,5.38,10.62,10.62,10.62A10.29,10.29,0,0,0,95,286.88V138.12A10.29,10.29,0,0,0,84.4,127.5C79.16,127.5,73.78,132.28,73.78,138.12Zm63.75,0V286.88c0,5.84,5.38,10.62,10.62,10.62,6.44,0,11.23-4.78,11.23-10.62V138.12c0-5.84-4.79-10.62-11.23-10.62C142.91,127.5,137.53,132.28,137.53,138.12Zm64.35,0V286.88a10.62,10.62,0,0,0,21.24,0V138.12a10.62,10.62,0,0,0-21.24,0Z"/></g></g></svg>