<svg xmlns="http://www.w3.org/2000/svg" viewBox="0 0 318.75 318.7"><g id="Layer_2" data-name="Layer 2"><g id="_" data-name="@"><path d="M318.75,159.57v13.9c0,29.78-21.37,56.29-50.88,60-25.48,3.24-48-10.16-58.91-30.64a74.25,74.25,0,0,1-133.39-57c5.31-29.82,29-53.73,58.15-59.34a74.11,74.11,0,0,1,67.47,21.15V95.77a10.64,10.64,0,0,1,21.27,0v79.76a37.26,37.26,0,0,0,45.6,36.28c17.13-3.78,28.78-19.81,28.78-37.36V159.53c0-78.64-62.42-140-140.85-138.26C76.54,23,16.24,90.2,21.45,169.62c4.65,70.48,57.51,123.3,128,127.84a10.64,10.64,0,1,1-1.5,21.22C68.69,313.63,8.77,255.59.83,177.37-8.79,82.67,66.74-1.37,161.83,0,250,1.3,318.15,70.92,318.75,159.57Zm-116.93,0a53.14,53.14,0,1,0-53.14,53.14A53.23,53.23,0,0,0,201.82,159.56Z"/></g></g></svg>