<svg xmlns="http://www.w3.org/2000/svg" viewBox="0 0 340 340"><g id="Layer_2" data-name="Layer 2"><g id="COPYRIGHT"><path d="M340,170A170,170,0,1,1,170,0,170,170,0,0,1,340,170Zm-21.25,0C318.75,88,252,21.25,170,21.25S21.25,88,21.25,170,88,318.75,170,318.75,318.75,252,318.75,170ZM124.92,124.92c-12.63,12-18.67,28-18.67,45.08s6,33.07,18.65,45.08c24.1,24.07,66.1,24.07,90.18,0a10.62,10.62,0,0,1,15,15A85,85,0,1,1,109.92,109.89c32.07-32.13,88.11-32.13,120.19,0a10.62,10.62,0,1,1-15,15C191,100.87,149,100.87,124.92,124.92Z"/></g></g></svg>