<svg xmlns="http://www.w3.org/2000/svg" viewBox="0 0 340.04 297.5"><g id="Layer_2" data-name="Layer 2"><g id="EXCLAMATION-TRIANGLE"><path d="M335.26,278.79a36.84,36.84,0,0,1-32.42,18.71H37.29A36.94,36.94,0,0,1,4.8,278.81a35.62,35.62,0,0,1,.28-36.19L137.82,18.17a37.63,37.63,0,0,1,64.42,0l132.68,224.4A35.56,35.56,0,0,1,335.26,278.79Zm-18.63-25.36L183.88,29A15.86,15.86,0,0,0,170,21.25h0A15.89,15.89,0,0,0,156.15,29L23.39,253.43a14.44,14.44,0,0,0-.1,14.85,15.87,15.87,0,0,0,14,8h265c6.44,0,11.68-3,13.94-8.57C319.51,263.5,318.85,258.12,316.63,253.43ZM185.37,233.75c0,8.8-6.54,15.94-15.34,15.94-8.2,0-15.34-7.14-15.34-15.94s6.54-15.94,15.34-15.94A15.05,15.05,0,0,1,185.37,233.75Zm-26-53.13V85c0-5.84,5.35-10.62,10.62-10.62s10,4.75,10,10.62v95.62c0,5.88-4.16,10.63-10,10.63A10.65,10.65,0,0,1,159.41,180.62Z"/></g></g></svg>