<svg xmlns="http://www.w3.org/2000/svg" viewBox="0 0 340 340"><g id="Layer_2" data-name="Layer 2"><g id="INFO-CIRCLE"><path d="M340,170A170,170,0,1,1,170,0,170,170,0,0,1,340,170Zm-21.25,0C318.75,88,252,21.25,170,21.25S21.25,88,21.25,170,88,318.75,170,318.75,318.75,252,318.75,170ZM212.5,244.38A10.63,10.63,0,0,1,201.88,255H138.12a10.63,10.63,0,0,1,0-21.25h21.26V170H148.75a10.63,10.63,0,1,1,0-21.25H170a10.65,10.65,0,0,1,10.62,10.63v74.37h21.26A10.65,10.65,0,0,1,212.5,244.38ZM154.06,106.25A15.94,15.94,0,1,1,170,122.19,15.93,15.93,0,0,1,154.06,106.25Z"/></g></g></svg>