<svg xmlns="http://www.w3.org/2000/svg" viewBox="0 0 255 339.12"><g id="Layer_2" data-name="Layer 2"><g id="MAP-MARKER-ALT"><path d="M255,127.5c0,58-77.7,161.37-111.76,204a20.07,20.07,0,0,1-31.48,0C77.1,288.87,0,185.54,0,127.5a127.5,127.5,0,0,1,255,0ZM127.5,21.25A106.22,106.22,0,0,0,21.25,127.5c0,10.36,3.61,24.57,11,42.1,7.24,17.2,17.42,35.86,28.94,54.52,22.61,36.72,49.44,71.85,66.31,93,16.87-21.19,43.7-56.32,66.34-93,11.49-18.66,21.65-37.32,28.89-54.52,7.43-17.53,11-31.74,11-42.1A106.22,106.22,0,0,0,127.5,21.25ZM180.62,127.5A53.12,53.12,0,1,1,127.5,74.38,53.1,53.1,0,0,1,180.62,127.5ZM127.5,159.38A31.88,31.88,0,1,0,95.62,127.5,31.89,31.89,0,0,0,127.5,159.38Z"/></g></g></svg>