<svg xmlns="http://www.w3.org/2000/svg" viewBox="0 0 382.5 297.5"><g id="Layer_2" data-name="Layer 2"><g id="MEGAPHONE"><path d="M382.5,10.62V286.88a10.63,10.63,0,0,1-21.25,0v-7.64L232.36,246.43a63.69,63.69,0,0,1-126.11-12.68,64.55,64.55,0,0,1,2.46-17.66L21.25,194.24v7.64a10.63,10.63,0,0,1-21.25,0V95.62a10.63,10.63,0,0,1,21.25,0v7.64l340-85V10.62a10.63,10.63,0,0,1,21.25,0Zm-21.25,246.7V40.17l-340,85v47.14ZM170,276.25a42.47,42.47,0,0,0,41.7-34.4l-82.34-20.58c-1.79,3.91-1.86,8.16-1.86,12.48A42.54,42.54,0,0,0,170,276.25Z"/></g></g></svg>